<svg width="334" height="238" viewBox="0 0 334 238" fill="none" xmlns="http://www.w3.org/2000/svg">
<path d="M5.67204 91.6346H12.1495C14.4582 91.6346 16.3298 93.5062 16.3298 95.8149V128.526C16.3298 140.07 25.6877 149.427 37.2311 149.427H50.3276C51.2512 149.427 51.9996 148.679 51.9996 147.755V124.303C51.9996 123.38 51.2509 122.631 50.3276 122.631H41.1165C38.8079 122.631 36.9363 120.76 36.9363 118.451V36.9769C36.9363 34.6682 38.8079 32.7966 41.1165 32.7966H50.328C51.2516 32.7966 52 32.0479 52 31.1246V7.67204C52 6.74842 51.2512 6 50.328 6H37.2315C25.6881 6 16.3301 15.358 16.3301 26.9013V59.6126C16.3301 61.9213 14.4586 63.7929 12.1499 63.7929H5.67204C4.74842 63.7929 4 64.5417 4 65.4649V89.9622C4 90.8858 4.74878 91.6342 5.67204 91.6342V91.6346Z" fill="#FFE7A5" stroke="#1E1E1E" stroke-width="2" stroke-miterlimit="10"/>
<path d="M328.328 91.6346H321.85C319.542 91.6346 317.67 93.5062 317.67 95.8149V128.526C317.67 140.07 308.312 149.427 296.769 149.427H283.672C282.749 149.427 282 148.679 282 147.755V124.303C282 123.38 282.749 122.631 283.672 122.631H292.883C295.192 122.631 297.064 120.76 297.064 118.451V36.9769C297.064 34.6682 295.192 32.7966 292.883 32.7966H283.672C282.748 32.7966 282 32.0479 282 31.1246V7.67204C282 6.74842 282.749 6 283.672 6H296.769C308.312 6 317.67 15.358 317.67 26.9013V59.6126C317.67 61.9213 319.541 63.7929 321.85 63.7929H328.328C329.252 63.7929 330 64.5417 330 65.4649V89.9622C330 90.8858 329.251 91.6342 328.328 91.6342V91.6346Z" fill="#FFE7A5" stroke="#1E1E1E" stroke-width="2" stroke-miterlimit="10"/>
<g clip-path="url(#clip0_596_371)">
<path d="M177.83 237.096C197.197 237.096 212.897 222.695 212.897 204.929C212.897 187.164 197.197 172.763 177.83 172.763C158.463 172.763 142.763 187.164 142.763 204.929C142.763 222.695 158.463 237.096 177.83 237.096Z" stroke="#1E1E1E" stroke-width="2" stroke-linejoin="round"/>
<path d="M177.83 237.096C186.191 237.096 192.968 222.695 192.968 204.929C192.968 187.164 186.191 172.763 177.83 172.763C169.469 172.763 162.691 187.164 162.691 204.929C162.691 222.695 169.469 237.096 177.83 237.096Z" stroke="#1E1E1E" stroke-width="2" stroke-linejoin="round"/>
<path d="M145.226 193.01H210.41" stroke="#1E1E1E" stroke-width="2" stroke-linejoin="round"/>
<path d="M145.226 216.794H210.41" stroke="#1E1E1E" stroke-width="2" stroke-linejoin="round"/>
</g>
<path d="M34.2082 176.772L9.40867 194.595C4.21241 198.329 3.02693 205.569 6.76083 210.766L6.77444 210.785C10.5083 215.982 17.7477 217.168 22.9439 213.433L47.7435 195.611C52.9397 191.876 54.1252 184.636 50.3913 179.439L50.3777 179.42C46.6438 174.223 39.4044 173.038 34.2082 176.772Z" fill="#EA4335" stroke="#1E1E1E" stroke-width="2" stroke-miterlimit="10"/>
<path d="M6.77834 197.225L6.76474 197.244C3.03083 202.441 4.21631 209.682 9.41258 213.416L34.2121 231.238C39.4084 234.973 46.6477 233.787 50.3816 228.59L50.3952 228.571C54.1291 223.374 52.9436 216.134 47.7474 212.4L22.9478 194.577C17.7516 190.843 10.5122 192.029 6.77834 197.225Z" fill="#4285F4" stroke="#1E1E1E" stroke-width="2" stroke-miterlimit="10"/>
<path d="M94.0764 194.569L69.2768 212.391C64.0806 216.126 62.8951 223.366 66.629 228.563L66.6426 228.582C70.3765 233.779 77.6158 234.964 82.8121 231.23L107.612 213.408C112.808 209.673 113.993 202.433 110.259 197.236L110.246 197.217C106.512 192.02 99.2726 190.835 94.0764 194.569Z" fill="#F9AB00" stroke="#1E1E1E" stroke-width="2" stroke-miterlimit="10"/>
<path d="M66.6421 179.41L66.6285 179.429C62.8946 184.626 64.0801 191.866 69.2763 195.601L94.0759 213.423C99.2721 217.157 106.511 215.972 110.245 210.775L110.259 210.756C113.993 205.559 112.807 198.319 107.611 194.584L82.8116 176.762C77.6154 173.027 70.376 174.213 66.6421 179.41Z" fill="#34A853" stroke="#1E1E1E" stroke-width="2" stroke-miterlimit="10"/>
<path d="M75.941 50V6.324H93.021C95.5423 6.324 97.7993 6.85266 99.792 7.91C101.825 8.92666 103.432 10.289 104.611 11.997C105.79 13.705 106.38 15.6163 106.38 17.731C106.38 20.0083 105.811 21.94 104.672 23.526C103.574 25.112 102.191 26.3117 100.524 27.125V27.613C102.761 28.3857 104.55 29.6667 105.892 31.456C107.275 33.2047 107.966 35.3397 107.966 37.861C107.966 40.3417 107.315 42.497 106.014 44.327C104.753 46.1163 103.025 47.5193 100.829 48.536C98.6737 49.512 96.2743 50 93.631 50H75.941ZM84.176 31.212V42.497H93.326C94.7087 42.497 95.8677 42.253 96.803 41.765C97.7383 41.277 98.45 40.606 98.938 39.752C99.426 38.898 99.67 37.9423 99.67 36.885C99.67 35.787 99.426 34.811 98.938 33.957C98.45 33.103 97.718 32.432 96.742 31.944C95.766 31.456 94.546 31.212 93.082 31.212H84.176ZM84.176 24.136H92.411C93.6717 24.136 94.729 23.9123 95.583 23.465C96.4777 22.977 97.1487 22.3263 97.596 21.513C98.084 20.6997 98.328 19.8253 98.328 18.89C98.328 17.914 98.1043 17.0397 97.657 16.267C97.2097 15.4943 96.559 14.8843 95.705 14.437C94.851 13.949 93.8343 13.705 92.655 13.705H84.176V24.136ZM123.145 50.976C119.322 50.976 116.455 49.7967 114.544 47.438C112.633 45.0793 111.677 41.8667 111.677 37.8V18.89H119.668V36.824C119.668 38.9387 120.176 40.606 121.193 41.826C122.25 43.0053 123.592 43.595 125.219 43.595C126.805 43.595 128.147 43.2087 129.245 42.436C130.343 41.6227 131.177 40.545 131.746 39.203C132.356 37.861 132.661 36.3767 132.661 34.75V18.89H140.652V50H133.149V46.096H132.661C132.051 47.072 131.258 47.926 130.282 48.658C129.306 49.39 128.208 49.9593 126.988 50.366C125.809 50.7727 124.528 50.976 123.145 50.976ZM146.319 50V18.89H154.31V50H146.319ZM150.345 15.474C148.921 15.474 147.701 14.9657 146.685 13.949C145.668 12.9323 145.16 11.7123 145.16 10.289C145.16 8.86566 145.668 7.666 146.685 6.69C147.701 5.67333 148.921 5.165 150.345 5.165C151.768 5.165 152.968 5.67333 153.944 6.69C154.96 7.666 155.469 8.86566 155.469 10.289C155.469 11.7123 154.96 12.9323 153.944 13.949C152.968 14.9657 151.768 15.474 150.345 15.474ZM159.986 50V6.324H167.977V50H159.986ZM187.012 50.976C184.165 50.976 181.603 50.2847 179.326 48.902C177.048 47.4787 175.239 45.5267 173.897 43.046C172.595 40.5653 171.945 37.6983 171.945 34.445C171.945 31.1917 172.595 28.3247 173.897 25.844C175.239 23.3633 177.048 21.4317 179.326 20.049C181.603 18.6257 184.165 17.914 187.012 17.914C188.516 17.914 189.879 18.1377 191.099 18.585C192.319 19.0323 193.376 19.622 194.271 20.354C195.165 21.086 195.857 21.8587 196.345 22.672H196.833L196.345 18.28V6.324H204.275V50H196.833V46.279H196.345C195.857 47.0923 195.165 47.865 194.271 48.597C193.376 49.2883 192.319 49.8577 191.099 50.305C189.879 50.7523 188.516 50.976 187.012 50.976ZM188.354 43.595C189.858 43.595 191.241 43.2087 192.502 42.436C193.803 41.6633 194.84 40.606 195.613 39.264C196.426 37.8813 196.833 36.275 196.833 34.445C196.833 32.615 196.426 31.029 195.613 29.687C194.84 28.3043 193.803 27.247 192.502 26.515C191.241 25.7423 189.858 25.356 188.354 25.356C186.89 25.356 185.507 25.7423 184.206 26.515C182.945 27.247 181.908 28.284 181.095 29.626C180.322 30.968 179.936 32.5743 179.936 34.445C179.936 36.275 180.322 37.8813 181.095 39.264C181.908 40.6467 182.945 41.7243 184.206 42.497C185.507 43.229 186.89 43.595 188.354 43.595ZM81.248 108L71.366 76.89H80.333L85.701 97.081H86.128L92.35 76.89H100.524L106.746 97.081H107.173L112.541 76.89H121.386L111.443 108H102.842L96.498 87.87H96.071L89.788 108H81.248ZM123.597 108V76.89H131.588V108H123.597ZM127.623 73.474C126.2 73.474 124.98 72.9657 123.963 71.949C122.946 70.9323 122.438 69.7123 122.438 68.289C122.438 66.8657 122.946 65.666 123.963 64.69C124.98 63.6733 126.2 63.165 127.623 63.165C129.046 63.165 130.246 63.6733 131.222 64.69C132.239 65.666 132.747 66.8657 132.747 68.289C132.747 69.7123 132.239 70.9323 131.222 71.949C130.246 72.9657 129.046 73.474 127.623 73.474ZM134.946 83.722V76.89H140.375V68.106H148.366V76.89H155.991V83.722H148.366V96.593C148.366 98.0977 148.671 99.216 149.281 99.948C149.891 100.639 150.887 100.985 152.27 100.985C152.921 100.985 153.531 100.904 154.1 100.741C154.669 100.538 155.381 100.172 156.235 99.643V107.451C155.34 107.776 154.425 108.02 153.49 108.183C152.595 108.386 151.66 108.488 150.684 108.488C147.471 108.488 144.95 107.573 143.12 105.743C141.29 103.872 140.375 101.31 140.375 98.057V83.722H134.946ZM160.581 108V64.324H168.572V75.365L168.084 80.794H168.572C169.467 79.3707 170.748 78.2117 172.415 77.317C174.123 76.3817 175.994 75.914 178.027 75.914C180.589 75.914 182.745 76.4427 184.493 77.5C186.242 78.5167 187.543 79.9807 188.397 81.892C189.292 83.8033 189.739 86.0603 189.739 88.663V108H181.748V89.639C181.748 88.2563 181.484 87.1177 180.955 86.223C180.467 85.2877 179.776 84.576 178.881 84.088C178.027 83.6 177.011 83.356 175.831 83.356C174.408 83.356 173.147 83.7627 172.049 84.576C170.951 85.3487 170.097 86.406 169.487 87.748C168.877 89.09 168.572 90.5743 168.572 92.201V108H160.581ZM204.526 108L220.874 64.324H230.329L246.738 108H237.649L233.989 97.569H217.275L213.615 108H204.526ZM231.305 90.005L227.462 79.025L225.876 73.779H225.388L223.802 79.025L219.959 90.005H231.305ZM250.575 108V64.324H258.81V108H250.575Z" fill="#1E1E1E"/>
<g clip-path="url(#clip1_596_371)">
<path d="M257.376 36.8649V19.6987C257.376 17.8825 256.407 16.2045 254.835 15.2962L239.968 6.71291C238.395 5.80501 236.458 5.80501 234.885 6.71291L220.018 15.2962C218.445 16.2041 217.477 17.8825 217.477 19.6987V36.8649C217.477 38.6811 218.445 40.3591 220.018 41.2674L234.885 49.8507C236.458 50.7586 238.395 50.7586 239.968 49.8507L254.835 41.2674C256.407 40.3595 257.376 38.6811 257.376 36.8649Z" fill="#4285F4" stroke="#1E1E1E" stroke-width="2" stroke-miterlimit="10"/>
<path d="M247.83 29.6407C242.509 31.1849 240.33 33.3637 238.786 38.6854C238.392 40.0437 236.461 40.0437 236.067 38.6854C234.523 33.3637 232.344 31.1849 227.023 29.6407C225.664 29.2467 225.664 27.3163 227.023 26.9223C232.344 25.3781 234.523 23.1994 236.067 17.8776C236.461 16.5193 238.392 16.5193 238.786 17.8776C240.33 23.1994 242.509 25.3781 247.83 26.9223C249.189 27.3163 249.189 29.2467 247.83 29.6407Z" fill="white" stroke="#1E1E1E" stroke-width="2" stroke-miterlimit="10"/>
</g>
<path d="M244.3 189.32C243.287 189.32 242.327 189.133 241.42 188.76C240.527 188.387 239.74 187.86 239.06 187.18C238.38 186.5 237.847 185.707 237.46 184.8C237.073 183.893 236.88 182.907 236.88 181.84C236.88 180.773 237.073 179.787 237.46 178.88C237.847 177.973 238.38 177.18 239.06 176.5C239.74 175.82 240.527 175.293 241.42 174.92C242.327 174.547 243.287 174.36 244.3 174.36C245.353 174.36 246.34 174.547 247.26 174.92C248.193 175.293 248.96 175.82 249.56 176.5L248.36 177.7C248.053 177.327 247.687 177.013 247.26 176.76C246.833 176.507 246.373 176.313 245.88 176.18C245.387 176.047 244.867 175.98 244.32 175.98C243.56 175.98 242.833 176.12 242.14 176.4C241.447 176.667 240.833 177.06 240.3 177.58C239.78 178.087 239.367 178.7 239.06 179.42C238.753 180.14 238.6 180.947 238.6 181.84C238.6 182.733 238.753 183.54 239.06 184.26C239.38 184.98 239.807 185.6 240.34 186.12C240.873 186.627 241.48 187.02 242.16 187.3C242.853 187.567 243.573 187.7 244.32 187.7C244.96 187.7 245.58 187.613 246.18 187.44C246.793 187.253 247.34 186.973 247.82 186.6C248.313 186.213 248.72 185.72 249.04 185.12C249.36 184.52 249.553 183.8 249.62 182.96H244.34V181.38H251.22C251.247 181.553 251.267 181.72 251.28 181.88C251.307 182.04 251.32 182.213 251.32 182.4V182.42C251.32 183.447 251.147 184.387 250.8 185.24C250.453 186.08 249.967 186.807 249.34 187.42C248.713 188.02 247.973 188.487 247.12 188.82C246.267 189.153 245.327 189.32 244.3 189.32ZM258.346 189.32C257.32 189.32 256.413 189.08 255.626 188.6C254.84 188.12 254.22 187.473 253.766 186.66C253.326 185.833 253.106 184.913 253.106 183.9C253.106 182.887 253.326 181.973 253.766 181.16C254.22 180.333 254.84 179.68 255.626 179.2C256.413 178.72 257.32 178.48 258.346 178.48C259.373 178.48 260.28 178.727 261.066 179.22C261.853 179.7 262.466 180.353 262.906 181.18C263.36 181.993 263.586 182.9 263.586 183.9C263.586 184.913 263.36 185.833 262.906 186.66C262.466 187.473 261.853 188.12 261.066 188.6C260.28 189.08 259.373 189.32 258.346 189.32ZM258.346 187.78C258.96 187.78 259.533 187.627 260.066 187.32C260.613 187.013 261.053 186.573 261.386 186C261.72 185.413 261.886 184.713 261.886 183.9C261.886 183.087 261.72 182.393 261.386 181.82C261.053 181.233 260.613 180.787 260.066 180.48C259.533 180.173 258.96 180.02 258.346 180.02C257.733 180.02 257.153 180.173 256.606 180.48C256.06 180.787 255.62 181.233 255.286 181.82C254.953 182.393 254.786 183.087 254.786 183.9C254.786 184.713 254.953 185.413 255.286 186C255.62 186.573 256.06 187.013 256.606 187.32C257.153 187.627 257.733 187.78 258.346 187.78ZM270.221 189.32C269.195 189.32 268.288 189.08 267.501 188.6C266.715 188.12 266.095 187.473 265.641 186.66C265.201 185.833 264.981 184.913 264.981 183.9C264.981 182.887 265.201 181.973 265.641 181.16C266.095 180.333 266.715 179.68 267.501 179.2C268.288 178.72 269.195 178.48 270.221 178.48C271.248 178.48 272.155 178.727 272.941 179.22C273.728 179.7 274.341 180.353 274.781 181.18C275.235 181.993 275.461 182.9 275.461 183.9C275.461 184.913 275.235 185.833 274.781 186.66C274.341 187.473 273.728 188.12 272.941 188.6C272.155 189.08 271.248 189.32 270.221 189.32ZM270.221 187.78C270.835 187.78 271.408 187.627 271.941 187.32C272.488 187.013 272.928 186.573 273.261 186C273.595 185.413 273.761 184.713 273.761 183.9C273.761 183.087 273.595 182.393 273.261 181.82C272.928 181.233 272.488 180.787 271.941 180.48C271.408 180.173 270.835 180.02 270.221 180.02C269.608 180.02 269.028 180.173 268.481 180.48C267.935 180.787 267.495 181.233 267.161 181.82C266.828 182.393 266.661 183.087 266.661 183.9C266.661 184.713 266.828 185.413 267.161 186C267.495 186.573 267.935 187.013 268.481 187.32C269.028 187.627 269.608 187.78 270.221 187.78ZM281.876 193.64C281.01 193.64 280.263 193.493 279.636 193.2C279.023 192.92 278.523 192.56 278.136 192.12C277.763 191.68 277.496 191.233 277.336 190.78L278.896 190.12C279.11 190.68 279.47 191.147 279.976 191.52C280.496 191.907 281.13 192.1 281.876 192.1C282.943 192.1 283.763 191.787 284.336 191.16C284.91 190.547 285.196 189.687 285.196 188.58V187.44H285.116C284.796 187.933 284.336 188.353 283.736 188.7C283.136 189.033 282.436 189.2 281.636 189.2C280.756 189.2 279.95 188.973 279.216 188.52C278.496 188.067 277.923 187.44 277.496 186.64C277.07 185.827 276.856 184.893 276.856 183.84C276.856 182.787 277.07 181.86 277.496 181.06C277.923 180.247 278.496 179.613 279.216 179.16C279.95 178.707 280.756 178.48 281.636 178.48C282.436 178.48 283.136 178.653 283.736 179C284.336 179.333 284.796 179.753 285.116 180.26H285.196V178.8H286.816V188.6C286.816 189.733 286.596 190.673 286.156 191.42C285.73 192.167 285.143 192.72 284.396 193.08C283.663 193.453 282.823 193.64 281.876 193.64ZM281.876 187.66C282.476 187.66 283.03 187.513 283.536 187.22C284.043 186.913 284.443 186.473 284.736 185.9C285.043 185.327 285.196 184.64 285.196 183.84C285.196 183.013 285.043 182.32 284.736 181.76C284.443 181.187 284.043 180.753 283.536 180.46C283.03 180.167 282.476 180.02 281.876 180.02C281.276 180.02 280.723 180.173 280.216 180.48C279.71 180.773 279.303 181.207 278.996 181.78C278.69 182.34 278.536 183.027 278.536 183.84C278.536 184.653 278.69 185.347 278.996 185.92C279.303 186.48 279.71 186.913 280.216 187.22C280.723 187.513 281.276 187.66 281.876 187.66ZM289.291 189V174.68H290.991V189H289.291ZM298.01 189.32C297.024 189.32 296.144 189.087 295.37 188.62C294.61 188.153 294.01 187.513 293.57 186.7C293.144 185.887 292.93 184.96 292.93 183.92C292.93 182.947 293.13 182.047 293.53 181.22C293.944 180.393 294.517 179.733 295.25 179.24C295.997 178.733 296.87 178.48 297.87 178.48C298.884 178.48 299.75 178.707 300.47 179.16C301.204 179.6 301.764 180.213 302.15 181C302.55 181.787 302.75 182.687 302.75 183.7C302.75 183.793 302.744 183.887 302.73 183.98C302.73 184.073 302.724 184.153 302.71 184.22H294.63C294.67 184.953 294.837 185.573 295.13 186.08C295.464 186.653 295.89 187.08 296.41 187.36C296.944 187.64 297.497 187.78 298.07 187.78C298.817 187.78 299.43 187.607 299.91 187.26C300.404 186.9 300.797 186.46 301.09 185.94L302.53 186.64C302.13 187.413 301.557 188.053 300.81 188.56C300.064 189.067 299.13 189.32 298.01 189.32ZM294.73 182.82H300.95C300.937 182.54 300.87 182.24 300.75 181.92C300.644 181.587 300.464 181.28 300.21 181C299.97 180.707 299.657 180.473 299.27 180.3C298.897 180.113 298.43 180.02 297.87 180.02C297.204 180.02 296.624 180.193 296.13 180.54C295.65 180.873 295.284 181.333 295.03 181.92C294.897 182.2 294.797 182.5 294.73 182.82ZM237.58 211V196.68H241.9C243.393 196.68 244.68 196.987 245.76 197.6C246.84 198.2 247.673 199.04 248.26 200.12C248.847 201.2 249.14 202.44 249.14 203.84C249.14 205.24 248.847 206.48 248.26 207.56C247.673 208.627 246.84 209.467 245.76 210.08C244.68 210.693 243.393 211 241.9 211H237.58ZM239.28 209.38H241.9C243.02 209.38 243.993 209.167 244.82 208.74C245.647 208.3 246.287 207.667 246.74 206.84C247.193 206.013 247.42 205.013 247.42 203.84C247.42 202.667 247.193 201.667 246.74 200.84C246.287 200.013 245.647 199.387 244.82 198.96C243.993 198.52 243.02 198.3 241.9 198.3H239.28V209.38ZM255.803 211.32C254.817 211.32 253.937 211.087 253.163 210.62C252.403 210.153 251.803 209.513 251.363 208.7C250.937 207.887 250.723 206.96 250.723 205.92C250.723 204.947 250.923 204.047 251.323 203.22C251.737 202.393 252.31 201.733 253.043 201.24C253.79 200.733 254.663 200.48 255.663 200.48C256.677 200.48 257.543 200.707 258.263 201.16C258.997 201.6 259.557 202.213 259.943 203C260.343 203.787 260.543 204.687 260.543 205.7C260.543 205.793 260.537 205.887 260.523 205.98C260.523 206.073 260.517 206.153 260.503 206.22H252.423C252.463 206.953 252.63 207.573 252.923 208.08C253.257 208.653 253.683 209.08 254.203 209.36C254.737 209.64 255.29 209.78 255.863 209.78C256.61 209.78 257.223 209.607 257.703 209.26C258.197 208.9 258.59 208.46 258.883 207.94L260.323 208.64C259.923 209.413 259.35 210.053 258.603 210.56C257.857 211.067 256.923 211.32 255.803 211.32ZM252.523 204.82H258.743C258.73 204.54 258.663 204.24 258.543 203.92C258.437 203.587 258.257 203.28 258.003 203C257.763 202.707 257.45 202.473 257.063 202.3C256.69 202.113 256.223 202.02 255.663 202.02C254.997 202.02 254.417 202.193 253.923 202.54C253.443 202.873 253.077 203.333 252.823 203.92C252.69 204.2 252.59 204.5 252.523 204.82ZM265.239 211L261.119 200.8H262.939L266.099 209H266.139L269.339 200.8H271.119L266.959 211H265.239ZM276.78 211.32C275.793 211.32 274.913 211.087 274.14 210.62C273.38 210.153 272.78 209.513 272.34 208.7C271.913 207.887 271.7 206.96 271.7 205.92C271.7 204.947 271.9 204.047 272.3 203.22C272.713 202.393 273.287 201.733 274.02 201.24C274.767 200.733 275.64 200.48 276.64 200.48C277.653 200.48 278.52 200.707 279.24 201.16C279.973 201.6 280.533 202.213 280.92 203C281.32 203.787 281.52 204.687 281.52 205.7C281.52 205.793 281.513 205.887 281.5 205.98C281.5 206.073 281.493 206.153 281.48 206.22H273.4C273.44 206.953 273.607 207.573 273.9 208.08C274.233 208.653 274.66 209.08 275.18 209.36C275.713 209.64 276.267 209.78 276.84 209.78C277.587 209.78 278.2 209.607 278.68 209.26C279.173 208.9 279.567 208.46 279.86 207.94L281.3 208.64C280.9 209.413 280.327 210.053 279.58 210.56C278.833 211.067 277.9 211.32 276.78 211.32ZM273.5 204.82H279.72C279.707 204.54 279.64 204.24 279.52 203.92C279.413 203.587 279.233 203.28 278.98 203C278.74 202.707 278.427 202.473 278.04 202.3C277.667 202.113 277.2 202.02 276.64 202.02C275.973 202.02 275.393 202.193 274.9 202.54C274.42 202.873 274.053 203.333 273.8 203.92C273.667 204.2 273.567 204.5 273.5 204.82ZM283.451 211V196.68H285.151V211H283.451ZM292.331 211.32C291.304 211.32 290.397 211.08 289.611 210.6C288.824 210.12 288.204 209.473 287.751 208.66C287.311 207.833 287.091 206.913 287.091 205.9C287.091 204.887 287.311 203.973 287.751 203.16C288.204 202.333 288.824 201.68 289.611 201.2C290.397 200.72 291.304 200.48 292.331 200.48C293.357 200.48 294.264 200.727 295.051 201.22C295.837 201.7 296.451 202.353 296.891 203.18C297.344 203.993 297.571 204.9 297.571 205.9C297.571 206.913 297.344 207.833 296.891 208.66C296.451 209.473 295.837 210.12 295.051 210.6C294.264 211.08 293.357 211.32 292.331 211.32ZM292.331 209.78C292.944 209.78 293.517 209.627 294.051 209.32C294.597 209.013 295.037 208.573 295.371 208C295.704 207.413 295.871 206.713 295.871 205.9C295.871 205.087 295.704 204.393 295.371 203.82C295.037 203.233 294.597 202.787 294.051 202.48C293.517 202.173 292.944 202.02 292.331 202.02C291.717 202.02 291.137 202.173 290.591 202.48C290.044 202.787 289.604 203.233 289.271 203.82C288.937 204.393 288.771 205.087 288.771 205.9C288.771 206.713 288.937 207.413 289.271 208C289.604 208.573 290.044 209.013 290.591 209.32C291.137 209.627 291.717 209.78 292.331 209.78ZM299.506 215.32V200.8H301.126V202.32H301.206C301.392 202 301.652 201.7 301.986 201.42C302.332 201.14 302.732 200.913 303.186 200.74C303.639 200.567 304.139 200.48 304.686 200.48C305.619 200.48 306.452 200.713 307.186 201.18C307.919 201.647 308.499 202.287 308.926 203.1C309.352 203.913 309.566 204.847 309.566 205.9C309.566 206.953 309.352 207.887 308.926 208.7C308.499 209.513 307.919 210.153 307.186 210.62C306.452 211.087 305.619 211.32 304.686 211.32C303.872 211.32 303.159 211.133 302.546 210.76C301.932 210.387 301.486 209.967 301.206 209.5H301.126L301.206 210.9V215.32H299.506ZM304.506 209.78C305.092 209.78 305.639 209.627 306.146 209.32C306.666 209 307.079 208.547 307.386 207.96C307.706 207.373 307.866 206.687 307.866 205.9C307.866 205.1 307.706 204.413 307.386 203.84C307.079 203.253 306.666 202.807 306.146 202.5C305.639 202.18 305.092 202.02 304.506 202.02C303.919 202.02 303.366 202.18 302.846 202.5C302.339 202.807 301.926 203.253 301.606 203.84C301.286 204.413 301.126 205.1 301.126 205.9C301.126 206.7 301.286 207.393 301.606 207.98C301.926 208.553 302.339 209 302.846 209.32C303.366 209.627 303.919 209.78 304.506 209.78ZM316.038 211.32C315.051 211.32 314.171 211.087 313.398 210.62C312.638 210.153 312.038 209.513 311.598 208.7C311.171 207.887 310.958 206.96 310.958 205.92C310.958 204.947 311.158 204.047 311.558 203.22C311.971 202.393 312.544 201.733 313.278 201.24C314.024 200.733 314.898 200.48 315.898 200.48C316.911 200.48 317.778 200.707 318.498 201.16C319.231 201.6 319.791 202.213 320.178 203C320.578 203.787 320.778 204.687 320.778 205.7C320.778 205.793 320.771 205.887 320.758 205.98C320.758 206.073 320.751 206.153 320.738 206.22H312.658C312.698 206.953 312.864 207.573 313.158 208.08C313.491 208.653 313.918 209.08 314.438 209.36C314.971 209.64 315.524 209.78 316.098 209.78C316.844 209.78 317.458 209.607 317.938 209.26C318.431 208.9 318.824 208.46 319.118 207.94L320.558 208.64C320.158 209.413 319.584 210.053 318.838 210.56C318.091 211.067 317.158 211.32 316.038 211.32ZM312.758 204.82H318.978C318.964 204.54 318.898 204.24 318.778 203.92C318.671 203.587 318.491 203.28 318.238 203C317.998 202.707 317.684 202.473 317.298 202.3C316.924 202.113 316.458 202.02 315.898 202.02C315.231 202.02 314.651 202.193 314.158 202.54C313.678 202.873 313.311 203.333 313.058 203.92C312.924 204.2 312.824 204.5 312.758 204.82ZM322.709 211V200.8H324.329V202.44H324.409C324.542 202.053 324.762 201.72 325.069 201.44C325.389 201.147 325.749 200.92 326.149 200.76C326.562 200.587 326.969 200.5 327.369 200.5C327.675 200.5 327.915 200.52 328.089 200.56C328.262 200.587 328.422 200.633 328.569 200.7V202.54C328.355 202.433 328.122 202.353 327.869 202.3C327.629 202.247 327.382 202.22 327.129 202.22C326.635 202.22 326.182 202.36 325.769 202.64C325.355 202.92 325.022 203.293 324.769 203.76C324.529 204.227 324.409 204.74 324.409 205.3V211H322.709ZM244.3 233.32C243.287 233.32 242.327 233.133 241.42 232.76C240.527 232.387 239.74 231.86 239.06 231.18C238.38 230.5 237.847 229.707 237.46 228.8C237.073 227.893 236.88 226.907 236.88 225.84C236.88 224.773 237.073 223.787 237.46 222.88C237.847 221.973 238.38 221.18 239.06 220.5C239.74 219.82 240.527 219.293 241.42 218.92C242.327 218.547 243.287 218.36 244.3 218.36C245.353 218.36 246.34 218.547 247.26 218.92C248.193 219.293 248.96 219.82 249.56 220.5L248.36 221.7C248.053 221.327 247.687 221.013 247.26 220.76C246.833 220.507 246.373 220.313 245.88 220.18C245.387 220.047 244.867 219.98 244.32 219.98C243.56 219.98 242.833 220.12 242.14 220.4C241.447 220.667 240.833 221.06 240.3 221.58C239.78 222.087 239.367 222.7 239.06 223.42C238.753 224.14 238.6 224.947 238.6 225.84C238.6 226.733 238.753 227.54 239.06 228.26C239.38 228.98 239.807 229.6 240.34 230.12C240.873 230.627 241.48 231.02 242.16 231.3C242.853 231.567 243.573 231.7 244.32 231.7C244.96 231.7 245.58 231.613 246.18 231.44C246.793 231.253 247.34 230.973 247.82 230.6C248.313 230.213 248.72 229.72 249.04 229.12C249.36 228.52 249.553 227.8 249.62 226.96H244.34V225.38H251.22C251.247 225.553 251.267 225.72 251.28 225.88C251.307 226.04 251.32 226.213 251.32 226.4V226.42C251.32 227.447 251.147 228.387 250.8 229.24C250.453 230.08 249.967 230.807 249.34 231.42C248.713 232.02 247.973 232.487 247.12 232.82C246.267 233.153 245.327 233.32 244.3 233.32ZM253.549 233V222.8H255.169V224.44H255.249C255.382 224.053 255.602 223.72 255.909 223.44C256.229 223.147 256.589 222.92 256.989 222.76C257.402 222.587 257.809 222.5 258.209 222.5C258.515 222.5 258.755 222.52 258.929 222.56C259.102 222.587 259.262 222.633 259.409 222.7V224.54C259.195 224.433 258.962 224.353 258.709 224.3C258.469 224.247 258.222 224.22 257.969 224.22C257.475 224.22 257.022 224.36 256.609 224.64C256.195 224.92 255.862 225.293 255.609 225.76C255.369 226.227 255.249 226.74 255.249 227.3V233H253.549ZM265.26 233.32C264.234 233.32 263.327 233.08 262.54 232.6C261.754 232.12 261.134 231.473 260.68 230.66C260.24 229.833 260.02 228.913 260.02 227.9C260.02 226.887 260.24 225.973 260.68 225.16C261.134 224.333 261.754 223.68 262.54 223.2C263.327 222.72 264.234 222.48 265.26 222.48C266.287 222.48 267.194 222.727 267.98 223.22C268.767 223.7 269.38 224.353 269.82 225.18C270.274 225.993 270.5 226.9 270.5 227.9C270.5 228.913 270.274 229.833 269.82 230.66C269.38 231.473 268.767 232.12 267.98 232.6C267.194 233.08 266.287 233.32 265.26 233.32ZM265.26 231.78C265.874 231.78 266.447 231.627 266.98 231.32C267.527 231.013 267.967 230.573 268.3 230C268.634 229.413 268.8 228.713 268.8 227.9C268.8 227.087 268.634 226.393 268.3 225.82C267.967 225.233 267.527 224.787 266.98 224.48C266.447 224.173 265.874 224.02 265.26 224.02C264.647 224.02 264.067 224.173 263.52 224.48C262.974 224.787 262.534 225.233 262.2 225.82C261.867 226.393 261.7 227.087 261.7 227.9C261.7 228.713 261.867 229.413 262.2 230C262.534 230.573 262.974 231.013 263.52 231.32C264.067 231.627 264.647 231.78 265.26 231.78ZM276.135 233.32C274.882 233.32 273.935 232.953 273.295 232.22C272.669 231.487 272.355 230.487 272.355 229.22V222.8H274.055V228.96C274.055 229.973 274.289 230.7 274.755 231.14C275.222 231.567 275.802 231.78 276.495 231.78C277.095 231.78 277.615 231.627 278.055 231.32C278.495 231 278.835 230.593 279.075 230.1C279.315 229.607 279.435 229.093 279.435 228.56V222.8H281.135V233H279.515V231.52H279.435C279.262 231.84 279.002 232.14 278.655 232.42C278.322 232.687 277.935 232.9 277.495 233.06C277.069 233.233 276.615 233.32 276.135 233.32ZM283.607 237.32V222.8H285.227V224.32H285.307C285.494 224 285.754 223.7 286.087 223.42C286.434 223.14 286.834 222.913 287.287 222.74C287.741 222.567 288.241 222.48 288.787 222.48C289.721 222.48 290.554 222.713 291.287 223.18C292.021 223.647 292.601 224.287 293.027 225.1C293.454 225.913 293.667 226.847 293.667 227.9C293.667 228.953 293.454 229.887 293.027 230.7C292.601 231.513 292.021 232.153 291.287 232.62C290.554 233.087 289.721 233.32 288.787 233.32C287.974 233.32 287.261 233.133 286.647 232.76C286.034 232.387 285.587 231.967 285.307 231.5H285.227L285.307 232.9V237.32H283.607ZM288.607 231.78C289.194 231.78 289.741 231.627 290.247 231.32C290.767 231 291.181 230.547 291.487 229.96C291.807 229.373 291.967 228.687 291.967 227.9C291.967 227.1 291.807 226.413 291.487 225.84C291.181 225.253 290.767 224.807 290.247 224.5C289.741 224.18 289.194 224.02 288.607 224.02C288.021 224.02 287.467 224.18 286.947 224.5C286.441 224.807 286.027 225.253 285.707 225.84C285.387 226.413 285.227 227.1 285.227 227.9C285.227 228.7 285.387 229.393 285.707 229.98C286.027 230.553 286.441 231 286.947 231.32C287.467 231.627 288.021 231.78 288.607 231.78ZM299.159 233.32C298.399 233.32 297.726 233.2 297.139 232.96C296.566 232.707 296.086 232.373 295.699 231.96C295.326 231.533 295.046 231.073 294.859 230.58L296.379 229.9C296.646 230.513 297.033 230.987 297.539 231.32C298.046 231.653 298.626 231.82 299.279 231.82C299.906 231.82 300.426 231.693 300.839 231.44C301.266 231.187 301.479 230.813 301.479 230.32C301.479 230.013 301.393 229.76 301.219 229.56C301.046 229.347 300.793 229.167 300.459 229.02C300.126 228.873 299.719 228.74 299.239 228.62L297.999 228.3C297.519 228.167 297.066 227.98 296.639 227.74C296.213 227.5 295.866 227.193 295.599 226.82C295.346 226.433 295.219 225.967 295.219 225.42C295.219 224.807 295.399 224.28 295.759 223.84C296.119 223.4 296.593 223.067 297.179 222.84C297.766 222.6 298.393 222.48 299.059 222.48C299.646 222.48 300.193 222.567 300.699 222.74C301.219 222.9 301.673 223.147 302.059 223.48C302.446 223.8 302.739 224.2 302.939 224.68L301.459 225.36C301.206 224.853 300.866 224.5 300.439 224.3C300.013 224.1 299.539 224 299.019 224C298.459 224 297.973 224.127 297.559 224.38C297.146 224.62 296.939 224.953 296.939 225.38C296.939 225.807 297.106 226.127 297.439 226.34C297.786 226.553 298.206 226.727 298.699 226.86L300.179 227.24C301.179 227.493 301.933 227.873 302.439 228.38C302.946 228.873 303.199 229.48 303.199 230.2C303.199 230.84 303.019 231.393 302.659 231.86C302.299 232.327 301.813 232.687 301.199 232.94C300.586 233.193 299.906 233.32 299.159 233.32Z" fill="#1E1E1E"/>
<g style="mix-blend-mode:multiply">
<rect x="77" y="123" width="180" height="26" rx="13" fill="#4285F4"/>
<rect x="77" y="123" width="180" height="26" rx="13" stroke="#1E1E1E" stroke-width="2"/>
<path d="M148.792 142.5V140.97C148.828 140.934 148.936 140.82 149.116 140.628C149.296 140.424 149.524 140.172 149.8 139.872C150.076 139.56 150.37 139.23 150.682 138.882C151.006 138.522 151.33 138.162 151.654 137.802C151.978 137.442 152.278 137.112 152.554 136.812C152.83 136.512 153.052 136.272 153.22 136.092C153.784 135.48 154.198 134.94 154.462 134.472C154.738 133.992 154.876 133.488 154.876 132.96C154.876 132.564 154.78 132.204 154.588 131.88C154.396 131.544 154.12 131.28 153.76 131.088C153.412 130.884 153.004 130.782 152.536 130.782C152.092 130.782 151.702 130.878 151.366 131.07C151.042 131.262 150.778 131.496 150.574 131.772C150.382 132.048 150.256 132.318 150.196 132.582L148.81 132.024C148.882 131.772 149.008 131.496 149.188 131.196C149.38 130.884 149.632 130.584 149.944 130.296C150.256 130.008 150.634 129.774 151.078 129.594C151.522 129.414 152.032 129.324 152.608 129.324C153.412 129.324 154.096 129.498 154.66 129.846C155.236 130.194 155.68 130.644 155.992 131.196C156.304 131.736 156.46 132.318 156.46 132.942C156.46 133.482 156.346 134.01 156.118 134.526C155.89 135.042 155.614 135.522 155.29 135.966C154.966 136.398 154.654 136.77 154.354 137.082C154.198 137.238 153.982 137.466 153.706 137.766C153.442 138.054 153.154 138.372 152.842 138.72C152.53 139.056 152.224 139.386 151.924 139.71C151.624 140.034 151.36 140.316 151.132 140.556C150.916 140.796 150.766 140.958 150.682 141.042H156.568V142.5H148.792ZM162.137 142.788C161.381 142.788 160.703 142.614 160.103 142.266C159.503 141.918 158.987 141.438 158.555 140.826C158.123 140.214 157.793 139.5 157.565 138.684C157.337 137.868 157.223 136.992 157.223 136.056C157.223 135.12 157.337 134.244 157.565 133.428C157.793 132.612 158.123 131.898 158.555 131.286C158.987 130.662 159.503 130.182 160.103 129.846C160.703 129.498 161.381 129.324 162.137 129.324C162.893 129.324 163.571 129.498 164.171 129.846C164.783 130.182 165.305 130.662 165.737 131.286C166.169 131.898 166.499 132.612 166.727 133.428C166.955 134.244 167.069 135.12 167.069 136.056C167.069 136.992 166.955 137.868 166.727 138.684C166.499 139.5 166.169 140.214 165.737 140.826C165.305 141.438 164.783 141.918 164.171 142.266C163.571 142.614 162.893 142.788 162.137 142.788ZM162.137 141.33C162.833 141.33 163.433 141.096 163.937 140.628C164.441 140.16 164.825 139.53 165.089 138.738C165.365 137.934 165.503 137.04 165.503 136.056C165.503 135.06 165.365 134.166 165.089 133.374C164.825 132.582 164.441 131.952 163.937 131.484C163.433 131.016 162.833 130.782 162.137 130.782C161.441 130.782 160.841 131.016 160.337 131.484C159.845 131.952 159.461 132.582 159.185 133.374C158.921 134.166 158.789 135.06 158.789 136.056C158.789 137.04 158.921 137.934 159.185 138.738C159.461 139.53 159.845 140.16 160.337 140.628C160.841 141.096 161.441 141.33 162.137 141.33ZM167.462 142.5V140.97C167.498 140.934 167.606 140.82 167.786 140.628C167.966 140.424 168.194 140.172 168.47 139.872C168.746 139.56 169.04 139.23 169.352 138.882C169.676 138.522 170 138.162 170.324 137.802C170.648 137.442 170.948 137.112 171.224 136.812C171.5 136.512 171.722 136.272 171.89 136.092C172.454 135.48 172.868 134.94 173.132 134.472C173.408 133.992 173.546 133.488 173.546 132.96C173.546 132.564 173.45 132.204 173.258 131.88C173.066 131.544 172.79 131.28 172.43 131.088C172.082 130.884 171.674 130.782 171.206 130.782C170.762 130.782 170.372 130.878 170.036 131.07C169.712 131.262 169.448 131.496 169.244 131.772C169.052 132.048 168.926 132.318 168.866 132.582L167.48 132.024C167.552 131.772 167.678 131.496 167.858 131.196C168.05 130.884 168.302 130.584 168.614 130.296C168.926 130.008 169.304 129.774 169.748 129.594C170.192 129.414 170.702 129.324 171.278 129.324C172.082 129.324 172.766 129.498 173.33 129.846C173.906 130.194 174.35 130.644 174.662 131.196C174.974 131.736 175.13 132.318 175.13 132.942C175.13 133.482 175.016 134.01 174.788 134.526C174.56 135.042 174.284 135.522 173.96 135.966C173.636 136.398 173.324 136.77 173.024 137.082C172.868 137.238 172.652 137.466 172.376 137.766C172.112 138.054 171.824 138.372 171.512 138.72C171.2 139.056 170.894 139.386 170.594 139.71C170.294 140.034 170.03 140.316 169.802 140.556C169.586 140.796 169.436 140.958 169.352 141.042H175.238V142.5H167.462ZM180.124 142.788C179.572 142.788 179.008 142.668 178.432 142.428C177.856 142.188 177.34 141.816 176.884 141.312C176.44 140.808 176.122 140.166 175.93 139.386L177.28 138.846C177.472 139.578 177.808 140.178 178.288 140.646C178.768 141.102 179.362 141.33 180.07 141.33C180.886 141.33 181.552 141.078 182.068 140.574C182.584 140.058 182.842 139.398 182.842 138.594C182.842 138.054 182.728 137.574 182.5 137.154C182.272 136.734 181.948 136.404 181.528 136.164C181.12 135.924 180.646 135.804 180.106 135.804C179.662 135.804 179.236 135.912 178.828 136.128C178.42 136.332 178.096 136.608 177.856 136.956L176.308 136.344L177.154 129.612H183.58V131.07H178.396L177.874 135.192L177.964 135.21C178.252 134.97 178.6 134.772 179.008 134.616C179.416 134.46 179.878 134.382 180.394 134.382C181.114 134.382 181.78 134.562 182.392 134.922C183.004 135.282 183.49 135.774 183.85 136.398C184.222 137.022 184.408 137.742 184.408 138.558C184.408 139.35 184.222 140.064 183.85 140.7C183.478 141.336 182.968 141.846 182.32 142.23C181.684 142.602 180.952 142.788 180.124 142.788Z" fill="#1E1E1E"/>
</g>
<defs>
<clipPath id="clip0_596_371">
<rect width="71.66" height="65.8591" fill="white" transform="translate(142 172)"/>
</clipPath>
<clipPath id="clip1_596_371">
<rect width="41.6842" height="46.284" fill="white" transform="translate(216.585 5.13989)"/>
</clipPath>
</defs>
</svg>
